# xmcd
#
# Track frame offsets: 
#        150
#        12697
#        24192
#        36926
#        49660
#        60402
#        72512
#        82655
#        95054
#        107244
#        121039
#        134326
#        146119
#        160047
#        173440
#        185515
#
# Disc length: 2605 seconds
#
# Revision: 0
# Processed by: cddbd v1.5.2PL0 Copyright (c) Steve Scherf et al.
# Submitted via: ExactAudioCopy v0.99pb5
#
DISCID=d00a2b10
DTITLE=Jerry Butler - The Best of the Vee-Jay Years
DYEAR=2007
DGENRE=Soul
TTITLE0=For Your Precious Love
TTITLE1=Come Back My Love
TTITLE2=He Will Break Your Heart
TTITLE3=Find Another Girl
TTITLE4=I'm a Telling You
TTITLE5=Moon River
TTITLE6=Aware of Love
TTITLE7=Make It Easy on Yourself
TTITLE8=You Can Run (But You Can't Hide)
TTITLE9=Message to Martha
TTITLE10=Need to Belong
TTITLE11=Giving Up on Love
TTITLE12=I Don't Want to Hear It Anymore
TTITLE13=I Stand Accused
TTITLE14=Let It Be Me
TTITLE15=Good Times
EXTD=
EXTT0=
EXTT1=
EXTT2=
EXTT3=
EXTT4=
EXTT5=
EXTT6=
EXTT7=
EXTT8=
EXTT9=
EXTT10=
EXTT11=
EXTT12=
EXTT13=
EXTT14=
EXTT15=
PLAYORDER=
